<?xml version="1.0" encoding="utf-8"?>
<!-- Svg Vector Icons : http://www.onlinewebfonts.com/icon -->
<!DOCTYPE svg PUBLIC "-//W3C//DTD SVG 1.1//EN" "http://www.w3.org/Graphics/SVG/1.1/DTD/svg11.dtd">
<svg version="1.1" xmlns="http://www.w3.org/2000/svg" xmlns:xlink="http://www.w3.org/1999/xlink" x="0px" y="0px" viewBox="0 0 1000 1000" enable-background="new 0 0 1000 1000" xml:space="preserve">
<metadata> Svg Vector Icons : http://www.onlinewebfonts.com/icon </metadata>
<g><path d="M855,990l0.1-177.9h13.4c41.6,0,75.4-33.8,75.4-75.4V567.3c0-41.6-33.8-75.4-75.4-75.4H784v-32.7h84.5c59.6,0,108,48.5,108,108v169.4c0,48-32.4,90.8-78.9,103.9l-10,2.8V990H855L855,990z"/><path d="M112.3,990V843.4l-10-2.8c-46.5-13.1-78.9-55.8-78.9-103.9V567.3c0-59.6,48.5-108,108-108h83.1v32.7h-83.1c-41.6,0-75.4,33.8-75.4,75.4v169.4c0,41.6,33.8,75.4,75.4,75.4h13.4L145,990L112.3,990L112.3,990z"/><path d="M574.8,990l0-229.5h13.6c17.9,0,35.4-6.7,49.3-18.7c16.6-14.4,26.1-35.1,26.1-56.7l0-233.5c-0.6-41.1-34.2-74.3-75.4-74.3H410.2c-41.1,0-74.8,33.4-75.3,74.5l-0.1,233.3c0,22.4,10.2,43.6,27.9,58.1c13.8,11.3,30.2,17.3,47.5,17.3h13.5L423.7,990H391V791.9l-10-2.8c-9.1-2.6-17.9-6.4-26-11.3l-3.1-1.9c-18.9-12.2-33.9-30.4-42.2-51.3c-5.1-12.8-7.6-26-7.6-39.5V452.7c0-1.5,0.1-2.9,0.2-4.3l0.1-2.1c0.7-11.5,3.1-22.6,7.3-33.1c8.7-22,24.8-40.9,45.2-53.1c16.8-10.1,35.9-15.4,55.2-15.4h178.1c19.3,0,38.4,5.3,55.2,15.4c20.4,12.3,36.5,31.1,45.2,53.1c4.1,10.5,6.6,21.6,7.3,33.1l0.1,2.1c0.1,1.4,0.2,2.9,0.2,4.3v232.4c0,13.4-2.6,26.7-7.6,39.5c-8.3,20.9-22.6,38.5-41.5,50.9l-2.7,1.6c-9.1,5.5-17.8,9.2-27.1,11.9l-10,2.8V990H574.8z"/><path d="M499.3,265.7c-70.5,0-127.8-57.3-127.8-127.8C371.4,67.3,428.8,10,499.3,10c70.5,0,127.8,57.3,127.8,127.8C627.1,208.3,569.7,265.7,499.3,265.7z M499.3,42.7c-52.5,0-95.2,42.7-95.2,95.2c0,52.5,42.7,95.2,95.2,95.2c52.5,0,95.2-42.7,95.2-95.2C594.4,85.3,551.7,42.7,499.3,42.7z"/><path d="M825.7,380.2c-70.5,0-127.8-57.3-127.8-127.8c0-70.5,57.3-127.8,127.8-127.8s127.8,57.3,127.8,127.8C953.5,322.9,896.2,380.2,825.7,380.2z M825.7,157.2c-52.5,0-95.2,42.7-95.2,95.2c0,52.5,42.7,95.2,95.2,95.2c52.5,0,95.2-42.7,95.2-95.2C920.9,199.9,878.2,157.2,825.7,157.2z"/><path d="M174.3,380.2c-70.5,0-127.8-57.3-127.8-127.8c0-70.5,57.3-127.8,127.8-127.8c70.5,0,127.8,57.3,127.8,127.8C302.1,322.9,244.8,380.2,174.3,380.2z M174.3,157.2c-52.5,0-95.2,42.7-95.2,95.2c0,52.5,42.7,95.2,95.2,95.2c52.5,0,95.2-42.7,95.2-95.2C269.5,199.9,226.8,157.2,174.3,157.2z"/></g>
</svg>