<?xml version="1.0" standalone="no"?>
<!DOCTYPE svg PUBLIC "-//W3C//DTD SVG 20010904//EN"
 "http://www.w3.org/TR/2001/REC-SVG-20010904/DTD/svg10.dtd">
<svg version="1.0" xmlns="http://www.w3.org/2000/svg"
 width="512.000000pt" height="512.000000pt" viewBox="0 0 512.000000 512.000000"
 preserveAspectRatio="xMidYMid meet">
<metadata>
Created by potrace 1.15, written by Peter Selinger 2001-2017
</metadata>
<g transform="translate(0.000000,512.000000) scale(0.100000,-0.100000)"
fill="#000000" stroke="none">
<path d="M1579 4273 c-15 -2 -39 -18 -55 -34 l-29 -30 0 -575 0 -576 33 -29
c45 -40 99 -40 144 0 l33 29 3 501 3 501 1599 0 1600 0 0 -960 0 -960 -1141 0
-1141 0 -34 -34 c-47 -47 -47 -95 0 -142 l34 -34 1212 0 1212 0 34 34 34 34 0
1096 c0 1189 2 1137 -53 1168 -18 10 -365 13 -1742 14 -946 1 -1732 -1 -1746
-3z"/>
<path d="M3265 3841 c-45 -20 -60 -49 -64 -132 l-3 -78 -37 -7 c-291 -48 -453
-234 -361 -414 43 -82 148 -144 310 -183 l90 -22 0 -107 c0 -60 -4 -108 -8
-108 -19 0 -120 34 -155 51 -26 14 -42 31 -53 59 -21 53 -57 80 -104 80 -44 0
-82 -26 -100 -69 -10 -24 -9 -39 4 -85 31 -106 154 -196 317 -232 41 -9 80
-18 87 -20 8 -2 12 -25 12 -69 0 -71 17 -117 49 -135 36 -19 98 -12 128 14 25
22 28 32 33 107 l5 83 65 12 c166 32 283 104 334 206 35 70 34 128 -1 199 -47
92 -162 158 -333 192 l-65 13 -3 108 -3 109 43 -7 c49 -8 124 -40 151 -64 10
-9 24 -30 31 -47 30 -69 98 -92 156 -53 72 49 64 139 -20 231 -61 66 -145 110
-268 140 l-92 22 0 72 c0 65 -3 76 -27 103 -30 33 -82 46 -118 31z m-65 -521
c0 -104 3 -103 -103 -70 -141 44 -139 88 4 140 30 11 64 19 77 20 21 0 22 -3
22 -90z m305 -362 c48 -12 87 -31 110 -54 15 -15 15 -18 0 -34 -20 -22 -118
-66 -167 -75 l-38 -7 0 96 0 96 28 -6 c15 -3 45 -11 67 -16z"/>
<path d="M4104 3831 c-36 -22 -58 -75 -49 -114 4 -14 20 -38 36 -53 l30 -29
211 -3 c116 -2 231 -1 256 3 97 14 135 108 73 177 l-29 33 -249 3 c-231 2
-250 1 -279 -17z"/>
<path d="M2294 3199 c-108 -14 -129 -30 -444 -344 -277 -276 -298 -295 -331
-295 -52 0 -184 -36 -256 -70 -71 -33 -140 -78 -195 -128 l-37 -34 -28 20
c-135 95 -500 188 -824 209 -108 7 -135 1 -159 -40 -19 -31 -20 -54 -20 -811
l0 -778 34 -34 c30 -30 40 -34 89 -34 130 0 334 59 536 156 l114 54 685 -105
c376 -58 688 -108 693 -111 5 -3 80 -5 167 -5 240 1 447 39 565 104 136 75
895 554 925 583 45 45 45 93 -2 140 l-34 34 -354 0 c-270 0 -417 -5 -625 -21
-260 -21 -274 -21 -324 -5 -187 62 -279 263 -200 440 11 26 102 159 201 296
99 137 190 270 203 297 34 73 32 207 -4 284 -66 140 -214 218 -375 198z m141
-240 c43 -38 63 -95 48 -142 -5 -17 -92 -144 -192 -282 -101 -137 -194 -271
-206 -296 -54 -105 -70 -266 -40 -384 48 -182 198 -332 380 -380 78 -20 145
-19 448 5 138 12 304 19 367 18 l115 -3 -272 -170 c-150 -93 -292 -180 -316
-193 -80 -42 -232 -65 -427 -65 -174 -1 -179 0 -807 99 -348 55 -635 103 -638
106 -6 5 124 534 174 711 35 125 134 237 266 302 83 41 171 65 238 65 26 0 60
6 75 14 15 8 155 144 312 301 157 158 299 296 315 306 18 12 48 19 77 19 39 0
54 -6 83 -31z m-1975 -655 c148 -27 246 -52 333 -84 l56 -21 -5 -47 c-19 -161
-73 -447 -120 -632 -77 -306 -58 -270 -178 -323 -122 -54 -277 -107 -312 -107
l-24 0 0 626 0 625 58 -6 c31 -4 118 -18 192 -31z"/>
</g>
</svg>
